# xmcd
#
# Track frame offsets:
#	150
#	12145
#	28220
#	42337
#	56292
#	71027
#	87630
#	101075
#	114320
#	130682
#	147790
#	161800
#	178710
#	196182
#	213357
#	233202
#	246712
#	256505
#	283965
#
# Disc length: 4102 seconds
#
# Revision: 0
# Processed by: cddbd v1.5.1PL2 Copyright (c) Steve Scherf et al.
# Submitted via: dBpowerAMP V4.0
#
DISCID=16100413
DTITLE=Tom Astor - Schlagerstars
DYEAR=2003
DGENRE=Country-Deutsch
TTITLE0=Hallo, guten Morgen Deutschland
TTITLE1=Junger Adler ´93
TTITLE2=Take it easy - nimm´s leicht
TTITLE3=Ich bin kein Dichter, kein Poet
TTITLE4=Renovier deine Seele
TTITLE5=Freundschaft
TTITLE6=Kleiner Rebell
TTITLE7=Hungrige Herzen
TTITLE8=Irgendwie wird´s schon geh´n
TTITLE9=Respekt vor Deiner Schwäche
TTITLE10=Ehrlichkeit
TTITLE11=Dieser Tag kann Dein Tag sein
TTITLE12=mit einer starken Frau
TTITLE13=Lucille
TTITLE14=Der Feigling des Jahrhunderts
TTITLE15=Wer hat ein Herz, das niemals bricht
TTITLE16=Adios Amigo
TTITLE17=Doch ich habe dich geliebt
TTITLE18=DATA
EXTD=Tom Astor - Schlagerstars
EXTT0=
EXTT1=
EXTT2=
EXTT3=
EXTT4=
EXTT5=
EXTT6=
EXTT7=
EXTT8=
EXTT9=
EXTT10=
EXTT11=
EXTT12=
EXTT13=
EXTT14=
EXTT15=
EXTT16=
EXTT17=
EXTT18=
PLAYORDER=
